<?xml version="1.0" encoding="utf-8"?>
<!-- Generator: Adobe Illustrator 17.0.0, SVG Export Plug-In . SVG Version: 6.00 Build 0)  -->
<!DOCTYPE svg PUBLIC "-//W3C//DTD SVG 1.1//EN" "http://www.w3.org/Graphics/SVG/1.1/DTD/svg11.dtd">
<svg version="1.1" id="Layer_1" xmlns="http://www.w3.org/2000/svg" xmlns:xlink="http://www.w3.org/1999/xlink" x="0px" y="0px"
	 width="720px" height="720px" viewBox="0 0 720 720" enable-background="new 0 0 720 720" xml:space="preserve">
<g>
	<path d="M195.29,535.208c-18.621,0-36.44,15.144-39.722,33.757c-1.618,9.174,0.484,17.793,5.919,24.271
		c5.321,6.342,13.201,9.834,22.189,9.834c18.62,0,36.439-15.144,39.722-33.757c1.618-9.174-0.484-17.794-5.92-24.271
		C212.157,538.7,204.278,535.208,195.29,535.208z M208.43,568.965c-1.858,10.534-11.935,19.104-22.461,19.104
		c-4.957,0-9.29-1.91-12.2-5.379c-2.979-3.55-4.127-8.301-3.231-13.378c1.857-10.534,11.933-19.104,22.46-19.104
		c4.957,0,9.29,1.91,12.2,5.378C208.177,559.137,209.324,563.888,208.43,568.965z"/>
	<path d="M407.054,544.478c-5.308-5.978-13.014-9.27-21.698-9.27c-6.75,0-13.53,1.957-19.74,5.679l0.794-4.505
		c0.052-0.291-0.028-0.59-0.219-0.816c-0.189-0.227-0.47-0.357-0.766-0.357h-13c-0.485,0-0.9,0.349-0.984,0.826l-11.613,65.861
		c-0.052,0.291,0.028,0.59,0.219,0.816c0.189,0.227,0.47,0.357,0.766,0.357h13c0.485,0,0.9-0.349,0.984-0.826l5.807-32.931
		c1.857-10.534,11.933-19.104,22.46-19.104c4.957,0,9.29,1.91,12.2,5.378c2.979,3.551,4.127,8.302,3.232,13.379l-5.807,32.931
		c-0.052,0.291,0.028,0.59,0.219,0.816c0.189,0.227,0.47,0.357,0.766,0.357h13c0.485,0,0.9-0.349,0.984-0.826l6.142-34.833
		c0.022-0.123,0.015-0.247-0.015-0.366C414.731,558.44,412.346,550.437,407.054,544.478z"/>
	<path d="M320.322,538.964c-0.075-0.272-0.262-0.501-0.515-0.628c-3.99-2.005-8.447-3.054-13.248-3.117
		c-0.047-0.007-0.095-0.011-0.144-0.011l-0.203,0.003c-0.013-0.001-0.103-0.003-0.115-0.003c-18.621,0-36.44,15.144-39.722,33.757
		c-1.618,9.174,0.484,17.793,5.919,24.271c5.321,6.342,13.201,9.834,22.189,9.834l0.204-0.003c0.014,0.001,0.101,0.003,0.114,0.003
		c0.043,0,0.085-0.003,0.127-0.008c3.864-0.05,7.749-0.737,11.549-2.044c0.47-0.161,0.75-0.644,0.657-1.132l-2.313-12.209
		c-0.054-0.285-0.229-0.532-0.48-0.679c-0.251-0.146-0.553-0.177-0.827-0.08c-2.154,0.741-4.366,1.126-6.559,1.144
		c-4.92-0.036-9.217-1.96-12.098-5.419c-2.951-3.544-4.086-8.277-3.195-13.33c1.847-10.475,11.875-19.042,22.341-19.099
		c2.688,0.026,5.169,0.603,7.375,1.712c0.458,0.23,1.016,0.076,1.292-0.355l7.53-11.803
		C320.353,539.528,320.397,539.237,320.322,538.964z"/>
	<path d="M269.295,549.382l2.293-13c0.052-0.291-0.028-0.59-0.219-0.816c-0.189-0.227-0.47-0.357-0.766-0.357
		c-6.75,0-13.53,1.957-19.74,5.679l0.794-4.505c0.052-0.291-0.028-0.59-0.219-0.816c-0.189-0.227-0.47-0.357-0.766-0.357h-13
		c-0.485,0-0.9,0.349-0.984,0.826l-11.613,65.861c-0.052,0.291,0.028,0.59,0.219,0.816c0.189,0.227,0.47,0.357,0.766,0.357h13
		c0.485,0,0.9-0.349,0.984-0.826l5.807-32.931c1.857-10.534,11.933-19.104,22.46-19.104
		C268.796,550.208,269.211,549.859,269.295,549.382z"/>
	<path d="M343.679,535.565c-0.189-0.227-0.47-0.357-0.766-0.357h-13c-0.485,0-0.9,0.349-0.984,0.826l-11.613,65.861
		c-0.052,0.291,0.028,0.59,0.219,0.816c0.189,0.227,0.47,0.357,0.766,0.357h13c0.485,0,0.9-0.349,0.984-0.826l11.613-65.861
		C343.949,536.091,343.869,535.792,343.679,535.565z"/>
	<path d="M492.989,535.208h-13c-0.485,0-0.9,0.349-0.984,0.826l-5.807,32.931c-1.858,10.534-11.935,19.104-22.461,19.104
		c-4.957,0-9.29-1.91-12.2-5.379c-2.979-3.55-4.127-8.301-3.231-13.378l5.807-32.931c0.052-0.291-0.028-0.59-0.219-0.816
		c-0.189-0.227-0.47-0.357-0.766-0.357h-13c-0.485,0-0.9,0.349-0.984,0.826l-6.259,35.495c-0.033,0.186-0.013,0.373,0.056,0.544
		c-0.713,8.385,1.761,16.155,6.989,21.927c5.299,5.849,12.94,9.069,21.516,9.069c6.749,0,13.529-1.957,19.74-5.679l-0.794,4.505
		c-0.052,0.291,0.028,0.59,0.219,0.816c0.189,0.227,0.47,0.357,0.766,0.357h13c0.485,0,0.9-0.349,0.984-0.826l11.613-65.861
		c0.052-0.291-0.028-0.59-0.219-0.816C493.565,535.339,493.284,535.208,492.989,535.208z"/>
	<path d="M564.054,561.995c-0.189-0.227-0.47-0.357-0.766-0.357h-25.813c-0.485,0-0.9,0.349-0.984,0.826l-2.292,13
		c-0.052,0.291,0.028,0.59,0.219,0.816c0.189,0.227,0.47,0.357,0.766,0.357l10.008,0.001c-4.252,6.897-11.89,11.431-19.493,11.431
		h-22.74c-0.485,0-0.9,0.349-0.984,0.826l-2.292,13c-0.052,0.291,0.028,0.59,0.219,0.816c0.189,0.227,0.47,0.357,0.766,0.357h22.74
		c18.62,0,36.439-15.144,39.722-33.758l1.146-6.5C564.324,562.521,564.244,562.222,564.054,561.995z"/>
	<path d="M522.225,575.812l2.292-13c0.052-0.291-0.028-0.59-0.219-0.816c-0.189-0.227-0.47-0.357-0.766-0.357h-10.299
		c4.252-6.896,11.89-11.43,19.492-11.43h22.74c0.485,0,0.9-0.349,0.984-0.826l2.293-13c0.052-0.291-0.028-0.59-0.219-0.816
		c-0.189-0.227-0.47-0.357-0.766-0.357h-22.74c-18.621,0-36.44,15.144-39.722,33.757l-1.15,6.521
		c-0.052,0.291,0.028,0.591,0.219,0.817c0.189,0.226,0.47,0.356,0.766,0.356h0.001l26.109-0.022
		C521.726,576.638,522.141,576.289,522.225,575.812z"/>
	<path d="M347.227,515.441c-0.189-0.227-0.47-0.357-0.766-0.357h-13c-0.485,0-0.9,0.349-0.984,0.826l-0.871,4.94
		c0.076,0,0.142,0,0.219,0c8.444,0,12.061,7.412,12.862,9.348c0.209-0.148,0.366-0.366,0.413-0.634l2.347-13.307
		C347.497,515.967,347.417,515.668,347.227,515.441z"/>
</g>
<path fill="#FFFFFF" d="M604.172,245.024c0,0-30.725,23.347-57.794,30.528c4.209-7.443,5.889-13.148,6.147-14.075l5.039-18.144
	l-18.574,3.096c-4.086,0.682-7.955,1.026-11.5,1.027c-10.633,0-18.52-3.012-24.111-9.207c-5.513-6.107-14.207-21.745-10.498-57.856
	l0.048-0.63c0.404-8.144-2.674-13.178-5.328-15.967c-2.657-2.792-7.535-6.12-15.689-6.12c-10.607,0-22.398,5.792-23.708,6.452
	l-0.856,0.432l-0.777,0.562c-35.096,25.407-45.983,64.505-49.171,81.604c-5.612,1.216-11.998,1.83-19.071,1.83
	c-25.536,0.001-54.793-8.01-71.17-15.454c-12.557-5.707-77.133-34.273-115.475-36.19c-1.308-0.065-2.622-0.098-3.906-0.098
	c-27.953,0-42.919,15.179-48.837,23.123c-14.102,5.124-20.028,15.242-21.032,25.071c-0.294,0.426-0.569,0.868-0.823,1.328
	c-1.942,3.509-2.437,7.552-1.403,11.416l3.657,12.729l0.073,0.243c0.316,1.019,0.667,2.025,1.021,3.031
	c0.155,0.444,0.312,0.889,0.495,1.429l2.833,8.151l0.128,0.352c0.721,1.882,1.472,3.709,2.197,5.477
	c0.372,0.904,0.744,1.81,1.134,2.775l1.634,3.997l0.116,0.275c0.434,0.991,0.902,1.967,1.374,2.94
	c0.201,0.417,0.403,0.833,0.639,1.335l3.732,7.786l4.419,8.197c0.229,0.414,0.452,0.83,0.676,1.246
	c0.501,0.93,1.004,1.859,1.534,2.773l2.348,3.88l0.056,0.091c0.506,0.818,1.001,1.645,1.496,2.47
	c1.009,1.681,2.053,3.419,3.222,5.189l4.847,7.184c1.236,1.885,2.494,3.54,3.711,5.144c0.562,0.739,1.124,1.478,1.67,2.229
	l0.486,0.654c1.647,2.21,3.35,4.495,5.271,6.775l5.412,6.602l5.938,6.726c1.6,1.859,3.207,3.52,4.764,5.125
	c0.501,0.517,1.001,1.033,1.566,1.625l2.997,3.089l0.099,0.101c0.724,0.729,1.467,1.439,2.21,2.149
	c0.347,0.331,0.694,0.662,1.038,0.996l0.117,0.111c0.697,0.659,1.386,1.326,2.076,1.993c1.4,1.354,2.848,2.755,4.396,4.137
	l6.4,5.736l1.06,0.905c4.12,3.497,8.379,7.111,12.901,10.525c2.52,1.994,5.029,3.835,7.081,5.319
	c2.409,1.774,4.78,3.509,7.281,5.201c4.614,3.243,9.606,6.52,14.832,9.735c5.107,3.148,10.238,6.151,15.249,8.925
	c2.985,1.653,5.49,2.987,7.876,4.193c2.526,1.315,5.188,2.647,7.829,3.918c5.089,2.501,10.409,4.896,16.224,7.302
	c5.659,2.368,11.355,4.478,16.931,6.272c0,0,67.442,26.559,150.581,10.562c18.78,0,34.396-4.922,41.772-13.166
	c4.607-5.149,6.347-10.466,5.168-15.802c-1.83-8.285-9.144-11.43-15.596-14.204c-10.312-4.434-24.061-10.347-30.598-33.31
	c38.392-3.516,67.892-46.355,67.892-46.355s-8.293,3.802-19.959,7l0.977-0.881c26.724-15.434,48.982-40.278,48.982-40.278
	s-12.383,5.516-28.35,10.168l6.361-8.061C570.3,296.047,604.172,245.024,604.172,245.024z"/>
<path d="M540.963,258.267c-61.202,10.2-63.249-47.652-60.02-79.098c0.915-18.41-27.231-4.378-27.337-4.325
	c-41.08,29.739-45.482,81.324-45.482,81.324c-32.679,11.438-83.466-1.927-105.933-12.139c-22.467-10.212-78.43-33.496-111.109-35.13
	c-32.679-1.634-44.525,21.241-44.525,21.241c-16.364,4.165-17.34,14.826-16.663,20.313l-0.274,0.078l-0.01,0.003
	c-1.797,0.516-2.835,2.392-2.318,4.189l0.003,0.012l2.382,8.285l1.193,4.145c0.427,1.372,0.93,2.72,1.391,4.081l2.833,8.152
	c1.028,2.685,2.157,5.333,3.231,8.003l1.634,3.997c0.578,1.318,1.231,2.601,1.843,3.903l3.732,7.786l4.108,7.593
	c0.694,1.26,1.354,2.541,2.077,3.784l2.236,3.691c1.512,2.447,2.936,4.952,4.521,7.352l4.827,7.154
	c1.574,2.41,3.404,4.634,5.094,6.96c1.719,2.305,3.424,4.619,5.279,6.815l5.464,6.665l5.708,6.452c1.87,2.181,3.913,4.2,5.894,6.276
	l2.997,3.089c1.011,1.018,2.063,1.993,3.092,2.991c2.084,1.969,4.102,4.008,6.241,5.916l6.4,5.736
	c4.367,3.706,8.719,7.428,13.292,10.872c2.241,1.779,4.542,3.476,6.858,5.153c2.302,1.696,4.607,3.383,6.976,4.983
	c4.673,3.287,9.457,6.41,14.318,9.401c4.859,2.995,9.778,5.882,14.765,8.642c2.494,1.38,5.002,2.731,7.546,4.016
	c2.525,1.317,5.073,2.588,7.638,3.823c5.108,2.51,10.309,4.827,15.562,7.001c5.243,2.194,10.577,4.182,15.977,5.92
	c-5.201-2.262-10.238-4.863-15.268-7.441c-5.019-2.603-9.955-5.357-14.848-8.169c-4.903-2.793-9.698-5.773-14.463-8.777
	c-4.77-2.999-9.461-6.116-14.08-9.33c-4.602-3.238-9.175-6.51-13.647-9.911c-2.263-1.664-4.461-3.413-6.653-5.168
	c-2.206-1.736-4.396-3.49-6.521-5.323c-4.319-3.582-8.51-7.306-12.692-11.034l-6.119-5.758c-2.043-1.914-3.963-3.953-5.95-5.922
	c-0.981-0.998-1.984-1.973-2.945-2.989l-2.846-3.081c-1.869-2.08-3.878-4.031-5.668-6.178l-5.503-6.321l-5.257-6.521
	c-1.786-2.148-3.423-4.408-5.073-6.659c-1.62-2.27-3.383-4.441-4.887-6.791l-4.695-6.924c-1.556-2.314-2.951-4.729-4.436-7.088
	l-2.196-3.559c-0.709-1.199-1.356-2.434-2.038-3.649l-4.039-7.321l-3.672-7.51c-0.602-1.256-1.247-2.494-1.816-3.765l-1.67-3.832
	c-1.102-2.56-2.259-5.099-3.319-7.677l-2.934-7.835c-0.479-1.309-1.002-2.605-1.447-3.927l-1.253-3.993l-1.528-4.864l1.565-0.511
	l0.812-0.265l0.074-0.024l0.124-0.027l0.387-0.085c2.051-0.501,4.157-0.849,6.291-1.088c1.075-0.079,2.145-0.202,3.226-0.25
	l3.258-0.078l3.28,0.082l3.292,0.229c2.196,0.207,4.394,0.467,6.591,0.806c2.199,0.32,4.398,0.699,6.588,1.156
	c2.195,0.429,4.378,0.947,6.562,1.472c2.181,0.542,4.357,1.121,6.526,1.737c8.673,2.485,17.287,5.366,25.881,8.385
	c1.242,0.422,2.488,0.842,3.731,1.263c8.966,4.076,16.075,7.443,20.029,8.258c13.889,2.859,29.411-2.042,44.117,24.918
	s88.233,80.88,88.233,80.88c27.777,81.697,112.742,76.796,126.631,61.273c13.889-15.522-35.13-2.451-45.751-61.273
	c11.726-6.335,22.149-13.977,31.394-22.315c-38.94,5.095-86.661-12.306-115.74-26.881c123.09,21.786,140.863-0.736,140.863-0.736
	c-38.464,12.284-80.952-9.612-80.952-9.612c69.171,8.714,88.778-11.854,88.778-11.854c-17.156,8.987-43.028-7.481-43.028-7.481
	C527.341,307.303,540.963,258.267,540.963,258.267z M315.877,285.655c-3.126,6.549-19.526,5.24-36.631-2.923
	c-17.105-8.164-28.437-20.091-25.311-26.64c3.126-6.549,19.525-5.24,36.631,2.923C307.67,267.178,319.003,279.106,315.877,285.655z"
	/>
</svg>
